:SAMPLES-PER-SECOND 30
:FRAME-RANGE 1-2775
:FULLY-SPECIFIED
:DEGREES
2515
root  37.8376 38.7492 4.14104 -171.09 63.7827 -168.517
RightUpLeg  -10.3637 -8.55043 0.795161
RightLeg  21.8543 -10.2254 -0.804549
RightFoot  -8.89612 -0.155817 4.46591
RightToes  -5.28216e-011 1.2921e-014 -6.02303e-014
Spine  8.65297 1.41712 15.502
Spine1  -2.76898 3.73719 -2.97244
HEad  -2.82945 46.8603 -7.11551
LeftShoulder1  1.05404 0.717004 -31.7563
LeftArm  22.2742 12.7583 -34.7858
LeftForeArm  1.73207 -12.2216 -14.2113
LeftHand  0.55112 -3.70862 -6.77471
RightShoulder  3.82966 3.7021 46.5736
RightArm  9.88931 -4.85987 7.9821
RightForeArm  19.1482 2.38822 16.3593
RightHand  0.312862 4.5055 3.3785
LeftUpLeg  -19.4105 3.51372 7.25418
LeftLeg  60.8802 -0.369387 -0.157846
LeftFoot  3.16657 0.896794 -7.19117
LeftToes  -2.158e-010 -1.26819e-010 -1.05346e-011
2516
root  38.9941 39.009 3.72696 -173.338 63.0885 -170.926
RightUpLeg  -6.76375 -8.63724 -0.489446
RightLeg  19.2748 -10.8348 -0.266529
RightFoot  -9.72241 -0.133584 4.77674
RightToes  -5.28216e-011 1.2921e-014 -6.02303e-014
Spine  8.2247 2.09606 14.8151
Spine1  -2.83241 4.30019 -4.31757
HEad  -3.31784 46.2749 -7.63517
LeftShoulder1  1.02283 0.78773 -31.5907
LeftArm  22.9836 14.2711 -34.0017
LeftForeArm  0.100012 -13.4289 -13.4239
LeftHand  0.514104 -3.61438 -6.37666
RightShoulder  4.02587 4.14753 46.0908
RightArm  14.0383 -4.57747 8.81353
RightForeArm  14.8779 5.95497 15.6988
RightHand  0.323043 4.57645 3.46815
LeftUpLeg  -21.5683 6.25886 5.31655
LeftLeg  54.9283 -0.767219 -0.700443
LeftFoot  0.490898 0.682856 -6.61509
LeftToes  -2.158e-010 -1.26819e-010 -1.05346e-011
2517
root  40.1013 39.2239 3.29718 -174.82 62.3479 -172.717
RightUpLeg  -3.42049 -8.91136 -1.44562
RightLeg  16.5751 -11.1655 0.235836
RightFoot  -10.2428 -0.119754 5.22882
RightToes  -5.28216e-011 1.2921e-014 -6.02303e-014
Spine  7.85078 2.64334 13.9736
Spine1  -3.12316 4.65626 -5.39566
HEad  -3.52735 46.0301 -8.00839
LeftShoulder1  0.962486 0.965471 -31.848
LeftArm  23.0336 15.4566 -32.9012
LeftForeArm  -0.718116 -14.142 -12.8902
LeftHand  0.489871 -3.65664 -6.03332
RightShoulder  4.31843 4.74617 45.8383
RightArm  17.7829 -4.067 9.51047
RightForeArm  10.792 9.08148 14.6668
RightHand  0.33718 4.7054 3.57768
LeftUpLeg  -22.9028 9.78035 3.20447
LeftLeg  46.231 -0.955889 -0.668711
LeftFoot  -1.02317 0.580773 -6.36163
LeftToes  -2.158e-010 -1.26819e-010 -1.05346e-011
2518
root  41.152 39.3982 2.85765 -175.815 61.5697 -174.073
RightUpLeg  0.024587 -8.84358 -2.13203
RightLeg  13.1832 -11.9067 0.772722
RightFoot  -10.5162 -0.112427 5.68511
RightToes  -5.28216e-011 1.2921e-014 -6.02303e-014
Spine  7.46342 3.06662 12.884
Spine1  -3.29665 4.887 -6.29691
HEad  -3.9292 46.0025 -8.38566
LeftShoulder1  0.948114 1.00908 -31.9342
LeftArm  21.3991 16.5799 -32.2991
LeftForeArm  -0.110308 -13.9804 -12.9236
LeftHand  0.441597 -3.62697 -5.43485
RightShoulder  4.66884 5.42653 45.7737
RightArm  20.3495 -3.25816 10.1294
RightForeArm  7.59719 11.4266 13.5614
RightHand  0.343115 4.73937 3.63135
LeftUpLeg  -23.2226 14.5379 0.684491
LeftLeg  34.861 -0.977698 -0.383953
LeftFoot  -1.52677 0.546173 -6.25187
LeftToes  -2.158e-010 -1.26819e-010 -1.05346e-011
2519
root  42.159 39.5133 2.36943 -176.18 60.6646 -174.85
RightUpLeg  3.29948 -8.41673 -2.41799
RightLeg  9.75905 -13.0646 1.17663
RightFoot  -10.5899 -0.112637 6.19484
RightToes  -5.28216e-011 1.2921e-014 -6.02303e-014
Spine  6.78171 3.34769 11.8342
Spine1  -3.04158 5.04038 -6.92179
HEad  -4.23604 46.1779 -8.46915
LeftShoulder1  0.934513 1.06246 -32.2071
LeftArm  18.9024 17.1086 -31.704
LeftForeArm  1.09289 -12.8096 -13.6537
LeftHand  0.416244 -3.36386 -5.28268
RightShoulder  5.05535 6.13788 45.9049
RightArm  21.556 -2.34092 10.6729
RightForeArm  5.5747 12.9995 12.6175
RightHand  0.350115 4.76043 3.70233
LeftUpLeg  -22.8055 21.3996 -2.70573
LeftLeg  21.4649 -2.50101 -0.762384
LeftFoot  -0.889328 0.596856 -6.46411
LeftToes  -2.158e-010 -1.26819e-010 -1.05346e-011
2520
root  43.1348 39.5294 1.80421 -176.119 59.7581 -175.014
RightUpLeg  6.48114 -7.93382 -2.46027
RightLeg  6.81029 -14.2195 1.56122
RightFoot  -10.9587 -0.0983269 7.12322
RightToes  -5.28216e-011 1.2921e-014 -6.02303e-014
Spine  6.13631 3.46474 11.1642
Spine1  -2.63149 5.18073 -7.59137
HEad  -4.6112 46.334 -8.3554
LeftShoulder1  0.942485 1.0449 -32.2581
LeftArm  15.7901 17.4108 -31.4029
LeftForeArm  3.23229 -10.798 -14.7834
LeftHand  0.424981 -3.3255 -5.4252
RightShoulder  5.45378 6.82211 46.2465
RightArm  21.1664 -1.48074 11.1624
RightForeArm  5.18551 13.6838 12.0788
RightHand  0.327202 4.86103 3.4007
LeftUpLeg  -19.8106 18.7309 -1.18234
LeftLeg  7.59496 7.00988 -4.21018
LeftFoot  0.196139 0.806557 -7.98811
LeftToes  -2.158e-010 -1.26819e-010 -1.05346e-011
2521
root  44.1475 39.3702 1.12794 -175.348 58.6064 -174.355
RightUpLeg  8.92952 -7.57746 -2.14383
RightLeg  5.8018 -15.2949 1.65497
RightFoot  -12.2408 -0.0172644 8.3918
RightToes  -5.28216e-011 1.2921e-014 -6.02303e-014
Spine  5.33171 3.45172 10.8771
Spine1  -2.3624 5.16193 -7.87007
HEad  -4.61323 46.4688 -7.88589
LeftShoulder1  0.927943 1.08318 -32.2629
LeftArm  12.8702 17.5159 -31.2042
LeftForeArm  5.82532 -8.49279 -15.8402
LeftHand  0.471816 -3.38659 -6.00148
RightShoulder  5.80815 7.39752 46.6587
RightArm  20.8029 -1.02111 11.6335
RightForeArm  4.36176 14.2678 11.6222
RightHand  0.326678 4.87096 3.39086
LeftUpLeg  -17.1168 9.25716 2.0587
LeftLeg  -3.90908 25.3421 -9.04878
LeftFoot  1.36891 1.03904 -9.38966
LeftToes  -2.158e-010 -1.26819e-010 -1.05346e-011
2522
root  45.1761 39.0685 0.367882 -174.145 57.0458 -173.136
RightUpLeg  10.8611 -7.46003 -1.59299
RightLeg  6.30708 -16.4213 1.60333
RightFoot  -14.1601 0.150785 10.0207
RightToes  -5.28216e-011 1.2921e-014 -6.02303e-014
Spine  4.53024 3.37603 10.6812
Spine1  -2.38162 4.9477 -7.70934
HEad  -4.61238 46.5601 -7.18278
LeftShoulder1  0.904758 1.14247 -32.2426
LeftArm  10.9324 17.3549 -31.0854
LeftForeArm  7.96367 -6.5245 -16.5783
LeftHand  0.520071 -3.33799 -6.67941
RightShoulder  5.97512 7.55825 47.3152
RightArm  20.3302 -0.576089 11.9794
RightForeArm  4.02318 14.4866 11.4285
RightHand  0.346407 4.89297 3.60441
LeftUpLeg  -17.4081 8.15469 1.44514
LeftLeg  -6.5417 33.9846 -9.51247
LeftFoot  1.62193 0.961989 -8.54396
LeftToes  -2.158e-010 -1.26819e-010 -1.05346e-011
2523
root  46.2531 38.8094 -0.435356 -174.348 55.2244 -173.101
RightUpLeg  13.4271 -7.65852 -1.80028
RightLeg  6.71244 -17.2618 1.70915
RightFoot  -15.4908 0.330435 11.9929
RightToes  -5.28216e-011 1.2921e-014 -6.02303e-014
Spine  4.02636 3.27601 8.95372
Spine1  -1.92701 4.77031 -6.94505
HEad  -4.93528 46.4998 -6.16942
LeftShoulder1  0.902422 1.13531 -32.0284
LeftArm  9.44593 17.0861 -31.2199
LeftForeArm  9.8218 -5.10255 -16.9765
LeftHand  0.564545 -3.46725 -7.15341
RightShoulder  6.03812 7.43419 48.3702
RightArm  20.5841 -0.332803 12.0386
RightForeArm  3.28739 14.7024 11.3162
RightHand  0.349222 4.91865 3.62542
LeftUpLeg  -17.975 7.72463 -0.0411498
LeftLeg  -3.58855 35.1291 -7.87881
LeftFoot  3.2924 -0.387718 2.86367
LeftToes  -2.158e-010 -1.26819e-010 -1.05346e-011
2524
root  47.3486 38.5719 -1.34321 -176.079 53.6021 -174.301
RightUpLeg  15.9179 -9.78238 -3.56967
RightLeg  8.98457 -15.1257 0.928417
RightFoot  -16.5359 0.583734 15.2712
RightToes  -5.28216e-011 1.2921e-014 -6.02303e-014
Spine  3.9706 3.2064 6.53032
Spine1  -1.58216 4.60819 -6.37341
HEad  -6.07134 47.3819 -5.15074
LeftShoulder1  0.894064 1.1616 -32.0988
LeftArm  10.3312 16.761 -30.8258
LeftForeArm  8.9187 -5.21165 -17.0568
LeftHand  0.564252 -3.26722 -7.33062
RightShoulder  6.31913 7.54276 50.1209
RightArm  20.204 -0.334753 11.509
RightForeArm  3.92889 14.0444 11.8208
RightHand  0.334633 5.01763 3.42238
LeftUpLeg  -19.4152 7.51653 -1.69979
LeftLeg  4.313 34.4789 -3.34093
LeftFoot  5.19488 -2.11774 14.2751
LeftToes  -2.158e-010 -1.26819e-010 -1.05346e-011
2525
root  48.4131 38.2998 -2.31321 -179.247 50.861 -177.441
RightUpLeg  16.2661 -16.1588 -7.6221
RightLeg  16.3824 -8.40148 -2.19672
RightFoot  -17.3631 0.997488 21.0025
RightToes  -5.28216e-011 1.2921e-014 -6.02303e-014
Spine  4.05221 2.95468 2.69237
Spine1  -1.64641 3.95939 -5.13574
HEad  -7.73628 49.3679 -4.76324
LeftShoulder1  0.898859 1.19217 -32.8086
LeftArm  12.1176 14.9818 -29.8657
LeftForeArm  7.33677 -4.94776 -17.3849
LeftHand  0.562702 -3.1783 -7.39287
RightShoulder  6.41576 7.31475 51.9266
RightArm  15.8932 0.157743 11.2025
RightForeArm  9.01469 10.6865 13.6877
RightHand  0.327331 5.125 3.30035
LeftUpLeg  -22.5438 18.4178 -9.17529
LeftLeg  15.2122 19.3825 3.92309
LeftFoot  0.688949 -1.28666 12.1215
LeftToes  -2.158e-010 -1.26819e-010 -1.05346e-011
2526
root  49.2599 38.1257 -3.23045 178.665 48.168 -179.781
RightUpLeg  13.4327 -14.7088 -9.21804
RightLeg  27.0579 -7.61053 -4.42693
RightFoot  -14.8645 0.834696 29.815
RightToes  -5.28216e-011 1.2921e-014 -6.02303e-014
Spine  4.46726 3.03346 0.781804
Spine1  -1.4741 4.02657 -6.26212
HEad  -9.20475 51.8058 -5.10107
LeftShoulder1  0.930677 1.10385 -32.7055
LeftArm  11.372 12.5634 -30.2383
LeftForeArm  8.20882 -3.54573 -17.7721
LeftHand  0.499141 -2.96769 -6.7156
RightShoulder  6.28236 6.97859 52.4628
RightArm  10.7571 -0.517826 11.8821
RightForeArm  14.9749 6.81967 14.9926
RightHand  0.382791 5.29591 3.83805
LeftUpLeg  -22.4349 20.1296 -12.1621
LeftLeg  19.0533 14.9091 5.368
LeftFoot  -2.08122 -0.972286 12.1119
LeftToes  -2.158e-010 -1.26819e-010 -1.05346e-011
2527
root  49.9888 38.1737 -4.1805 177.739 46.4417 179.114
RightUpLeg  7.33313 -10.6451 -9.44225
RightLeg  40.4347 -6.80635 -6.45015
RightFoot  -5.91469 -1.40372 28.2113
RightToes  -5.28216e-011 1.2921e-014 -6.02303e-014
Spine  4.62736 3.51245 0.801928
Spine1  -1.07767 4.67607 -7.99436
HEad  -9.99196 54.6746 -6.37186
LeftShoulder1  0.990438 0.960036 -32.8639
LeftArm  10.5018 10.3178 -30.954
LeftForeArm  8.39293 -3.61845 -17.6575
LeftHand  0.507215 -2.98241 -6.81434
RightShoulder  6.53686 7.38621 52.5402
RightArm  9.05746 -1.85322 12.2611
RightForeArm  17.4076 5.04844 15.3937
RightHand  0.601248 5.62693 5.99615
LeftUpLeg  -20.3737 18.1656 -12.2671
LeftLeg  20.2422 15.6366 5.18939
LeftFoot  -4.19634 -0.737728 12.173
LeftToes  -2.158e-010 -1.26819e-010 -1.05346e-011
2528
root  50.7422 38.2205 -5.12252 177.044 43.6897 178.232
RightUpLeg  0.193785 -7.83365 -9.39884
RightLeg  52.6171 -5.23383 -7.68238
RightFoot  8.39564 -2.26259 13.2867
RightToes  -5.28216e-011 1.2921e-014 -6.02303e-014
Spine  4.4759 3.41635 -0.227369
Spine1  -0.600816 4.49082 -7.73859
HEad  -11.1095 57.5897 -8.41196
LeftShoulder1  0.996289 0.957444 -33.053
LeftArm  11.5703 8.08326 -32.048
LeftForeArm  7.46014 -4.92795 -17.3047
LeftHand  0.531147 -3.17322 -6.97094
RightShoulder  6.74003 7.68595 52.7146
RightArm  9.17215 -1.93323 12.3091
RightForeArm  19.557 4.04017 15.6541
RightHand  0.864893 5.91609 8.51577
LeftUpLeg  -18.3011 16.5817 -12.8737
LeftLeg  21.1182 14.7818 5.22844
LeftFoot  -6.20584 -0.485532 11.6196
LeftToes  -2.158e-010 -1.26819e-010 -1.05346e-011
2529
root  51.4251 38.1588 -5.95634 176.197 40.1638 177.424
RightUpLeg  -4.35099 -6.31645 -10.262
RightLeg  60.035 -2.3862 -4.96512
RightFoot  7.98841 -2.31374 13.8498
RightToes  -5.28216e-011 1.2921e-014 -6.02303e-014
Spine  4.76392 3.28943 -1.88727
Spine1  0.0921493 3.99888 -7.12435
HEad  -11.3877 59.3191 -9.78922
LeftShoulder1  1.03398 0.866567 -33.1347
LeftArm  14.2943 5.46379 -33.4459
LeftForeArm  6.33089 -6.63336 -16.8149
LeftHand  0.564719 -3.57411 -7.06223
RightShoulder  6.6348 7.4734 52.8908
RightArm  10.0429 -1.69426 12.1048
RightForeArm  20.9936 3.82493 15.7595
RightHand  0.995599 5.96084 9.80442
LeftUpLeg  -16.3098 14.1376 -13.3485
LeftLeg  22.5637 14.1285 5.24757
LeftFoot  -8.33396 -0.234266 10.8061
LeftToes  -2.158e-010 -1.26819e-010 -1.05346e-011
